<?xml version="1.0" standalone="no"?>
<!DOCTYPE svg PUBLIC "-//W3C//DTD SVG 20010904//EN"
 "http://www.w3.org/TR/2001/REC-SVG-20010904/DTD/svg10.dtd">
<svg version="1.0" xmlns="http://www.w3.org/2000/svg"
 width="91.000000pt" height="91.000000pt" viewBox="0 0 91.000000 91.000000"
 preserveAspectRatio="xMidYMid meet">
<metadata>
Created by potrace 1.11, written by Peter Selinger 2001-2013
</metadata>
<g transform="translate(0.000000,91.000000) scale(0.100000,-0.100000)"
fill="#000000" stroke="none">
<path d="M345 876 c-139 -35 -260 -141 -306 -270 -13 -35 -14 -36 -20 -15 -3
13 -6 -21 -7 -76 -1 -55 -4 -126 -8 -157 -11 -97 32 -166 136 -217 30 -15 82
-42 116 -59 34 -17 74 -34 90 -37 60 -12 151 -13 198 -3 40 8 55 7 83 -6 46
-22 85 -20 118 5 23 19 26 28 23 63 -4 36 1 47 33 86 74 90 104 181 97 298 -5
95 -43 182 -110 257 -25 28 -48 62 -51 77 -8 29 -35 43 -80 40 -15 -2 -54 4
-86 13 -69 18 -156 18 -226 1z m237 -26 c34 -10 36 -13 26 -30 -7 -10 -20 -21
-30 -23 -20 -6 -25 -43 -5 -50 26 -9 47 12 40 43 -8 45 17 48 76 10 210 -134
251 -419 87 -607 -59 -68 -188 -129 -291 -137 -162 -13 -344 93 -411 239 -26
56 -44 165 -28 165 5 0 24 -23 43 -51 19 -28 58 -72 87 -97 56 -51 98 -122 89
-152 -6 -19 25 -37 45 -25 19 12 11 44 -14 51 -21 5 -53 50 -43 61 2 2 26 -7
53 -21 27 -13 63 -27 79 -31 17 -3 5 4 -25 16 -90 36 -130 65 -131 97 -1 27
-1 27 -8 3 l-7 -25 -41 37 c-22 21 -58 62 -79 92 -37 54 -37 55 -18 76 31 34
85 57 122 52 31 -5 33 -3 30 18 -4 29 -45 39 -54 14 -4 -9 -21 -23 -38 -32
-17 -8 -41 -25 -54 -36 -53 -49 -52 35 1 142 45 90 153 174 267 207 50 15 172
12 232 -6z m136 -13 c6 -5 12 -15 12 -23 0 -9 -10 -7 -34 9 -18 12 -32 25 -29
29 4 8 31 0 51 -15z m-654 -576 c10 -18 33 -50 53 -72 37 -41 37 -47 0 -28
-69 36 -107 102 -106 183 l0 51 18 -51 c10 -27 26 -65 35 -83z m696 -165 c0
-58 -69 -86 -128 -52 -23 12 -23 12 15 30 21 9 49 26 63 36 37 29 50 25 50
-14z"/>
<path d="M345 764 c-18 -19 -19 -28 -2 -42 8 -7 23 -4 47 9 20 11 28 19 17 19
-9 0 -17 4 -17 9 0 17 -29 20 -45 5z"/>
<path d="M436 739 c3 -5 12 -9 19 -9 46 0 195 -93 195 -121 0 -12 -70 -51
-134 -75 -34 -13 -54 -23 -46 -23 23 -1 123 43 160 69 l33 23 18 -22 c19 -24
59 -122 59 -147 0 -8 -5 -23 -12 -33 -12 -19 -5 -51 11 -51 5 0 17 7 26 16 14
15 14 18 0 33 -8 10 -15 25 -15 34 0 26 -39 123 -60 150 -19 24 -19 25 1 43
11 10 27 19 36 20 24 4 36 21 29 39 -10 28 -50 15 -56 -19 -8 -49 -32 -54 -71
-16 -43 42 -212 120 -193 89z"/>
<path d="M380 515 c-10 -12 -10 -18 0 -30 17 -20 32 -19 51 3 15 17 15 20 -2
30 -25 16 -34 15 -49 -3z"/>
<path d="M200 420 c-7 -14 -6 -23 5 -34 8 -8 12 -22 9 -30 -3 -9 -1 -16 6 -16
6 0 9 4 5 9 -3 5 2 16 10 24 21 22 19 54 -5 60 -13 3 -24 -1 -30 -13z"/>
<path d="M495 200 c-3 -5 -23 -11 -43 -11 -34 -2 -35 -2 -7 -6 17 -3 34 -11
38 -19 4 -8 17 -14 27 -14 11 0 26 -12 35 -29 8 -17 20 -33 26 -37 6 -3 2 11
-10 32 -11 22 -23 51 -26 67 -5 27 -28 36 -40 17z"/>
<path d="M51 734 c-17 -14 -31 -31 -31 -37 0 -7 10 1 23 16 12 15 36 32 52 36
24 7 25 9 8 10 -12 1 -35 -11 -52 -25z"/>
<path d="M11 664 c0 -11 3 -14 6 -6 3 7 2 16 -1 19 -3 4 -6 -2 -5 -13z"/>
<path d="M5 630 c3 -5 8 -10 11 -10 2 0 4 5 4 10 0 6 -5 10 -11 10 -5 0 -7 -4
-4 -10z"/>
</g>
</svg>
